<?xml version="1.0" encoding="UTF-8"?>
<svg xmlns="http://www.w3.org/2000/svg" xmlns:xlink="http://www.w3.org/1999/xlink" width="804.7pt" height="218.2pt" viewBox="0 0 804.7 218.2" version="1.1">
<defs>
<clipPath id="clip1">
  <path d="M 225 154 L 804.699219 154 L 804.699219 206 L 225 206 Z M 225 154 "/>
</clipPath>
<clipPath id="clip2">
  <path d="M 0 7 L 83 7 L 83 218.199219 L 0 218.199219 Z M 0 7 "/>
</clipPath>
<clipPath id="clip3">
  <path d="M 59 0 L 136 0 L 136 218.199219 L 59 218.199219 Z M 59 0 "/>
</clipPath>
<clipPath id="clip4">
  <path d="M 113 7 L 196 7 L 196 218.199219 L 113 218.199219 Z M 113 7 "/>
</clipPath>
</defs>
<g id="surface1">
<path style=" stroke:none;fill-rule:evenodd;fill:rgb(10.594177%,9.812927%,9.423828%);fill-opacity:1;" d="M 227.246094 87.777344 L 235.96875 87.777344 L 235.96875 116.140625 C 235.96875 121.671875 236.738281 125.523438 238.285156 127.695313 C 239.832031 129.867188 242.449219 130.945313 246.121094 130.945313 C 249.804688 130.945313 252.40625 129.867188 253.941406 127.695313 C 255.476563 125.523438 256.246094 121.671875 256.246094 116.140625 L 256.246094 87.777344 L 260.433594 87.777344 L 260.433594 117.726563 C 260.433594 123.796875 259.054688 128.355469 256.304688 131.390625 C 253.546875 134.425781 249.40625 135.9375 243.875 135.9375 C 241.417969 135.9375 239.054688 135.496094 236.796875 134.605469 C 234.53125 133.707031 232.671875 132.496094 231.21875 130.945313 C 229.789063 129.445313 228.769531 127.730469 228.160156 125.800781 C 227.546875 123.867188 227.246094 121.167969 227.246094 117.726563 Z M 273.75 134.773438 L 270.800781 134.773438 L 270.800781 109.21875 C 270.800781 107.035156 271.160156 105.464844 271.867188 104.492188 C 272.585938 103.519531 273.714844 103.027344 275.261719 103.027344 C 276.511719 103.027344 277.675781 103.460938 278.777344 104.3125 C 279.882813 105.164063 280.925781 106.460938 281.910156 108.199219 L 289.960938 122.535156 C 289.984375 122.585938 290.03125 122.632813 290.117188 122.679688 C 290.199219 122.730469 290.285156 122.753906 290.378906 122.753906 C 290.574219 122.753906 290.703125 122.691406 290.789063 122.574219 C 290.871094 122.464844 290.910156 122.222656 290.910156 121.875 L 290.910156 103.953125 L 293.859375 103.953125 L 293.859375 132.171875 C 293.859375 133.597656 293.691406 134.558594 293.355469 135.050781 C 293.007813 135.542969 292.433594 135.792969 291.617188 135.792969 C 291.027344 135.792969 290.523438 135.652344 290.117188 135.351563 C 289.707031 135.0625 289.3125 134.570313 288.941406 133.898438 L 274.769531 109.566406 C 274.675781 109.398438 274.589844 109.289063 274.519531 109.230469 C 274.460938 109.171875 274.375 109.148438 274.28125 109.148438 C 274.0625 109.148438 273.929688 109.195313 273.859375 109.289063 C 273.789063 109.386719 273.75 109.613281 273.75 109.988281 Z M 302.992188 95.15625 C 302.992188 94.042969 303.386719 93.105469 304.167969 92.324219 C 304.957031 91.546875 305.90625 91.148438 307.035156 91.148438 C 308.113281 91.148438 309.039063 91.535156 309.804688 92.300781 C 310.585938 93.070313 310.96875 94.015625 310.96875 95.15625 C 310.96875 96.25 310.585938 97.171875 309.828125 97.953125 C 309.0625 98.734375 308.136719 99.128906 307.035156 99.128906 C 305.90625 99.128906 304.957031 98.734375 304.167969 97.953125 C 303.386719 97.171875 302.992188 96.25 302.992188 95.15625 Z M 303.554688 103.953125 L 310.40625 103.953125 L 310.40625 134.773438 L 303.554688 134.773438 Z M 341.277344 103.953125 L 344.15625 103.953125 L 336.8125 128.800781 C 336.058594 131.414063 335.21875 133.238281 334.292969 134.257813 C 333.371094 135.277344 332.144531 135.792969 330.621094 135.792969 C 329.097656 135.792969 327.863281 135.289063 326.925781 134.28125 C 325.992188 133.273438 325.164063 131.488281 324.429688 128.929688 L 317.089844 103.953125 L 324.082031 103.953125 L 331.917969 130.792969 C 331.988281 131.007813 332.097656 131.1875 332.242188 131.320313 C 332.386719 131.464844 332.542969 131.535156 332.734375 131.535156 C 332.914063 131.511719 333.082031 131.4375 333.203125 131.320313 C 333.332031 131.210938 333.429688 131.042969 333.5 130.828125 Z M 350.058594 109.507813 C 350.058594 107.214844 350.429688 105.714844 351.164063 105.007813 C 351.90625 104.300781 353.453125 103.953125 355.816406 103.953125 L 370.515625 103.953125 L 370.515625 106.628906 L 360.003906 106.628906 C 358.757813 106.628906 357.929688 106.808594 357.523438 107.15625 C 357.113281 107.503906 356.910156 108.152344 356.910156 109.085938 L 356.910156 116.851563 L 368.054688 116.851563 L 368.054688 119.871094 L 356.910156 119.871094 L 356.910156 129.675781 C 356.910156 130.609375 357.125 131.246094 357.546875 131.59375 C 357.964844 131.929688 358.949219 132.097656 360.496094 132.097656 L 370.863281 132.097656 L 370.863281 134.773438 L 354.726563 134.773438 C 353 134.773438 351.785156 134.414063 351.089844 133.683594 C 350.40625 132.964844 350.058594 131.464844 350.058594 129.21875 Z M 384.996094 134.773438 L 378.144531 134.773438 L 378.144531 103.953125 L 390.515625 103.953125 C 394.355469 103.953125 397.269531 104.683594 399.261719 106.136719 C 401.253906 107.585938 402.25 109.6875 402.25 112.457031 C 402.25 114.472656 401.652344 116.128906 400.460938 117.414063 C 399.261719 118.695313 397.617188 119.476563 395.507813 119.730469 L 403.484375 134.773438 L 395.292969 134.773438 L 387.949219 119.382813 C 390.433594 119.332031 392.253906 118.816406 393.40625 117.832031 C 394.570313 116.851563 395.148438 115.300781 395.148438 113.191406 C 395.148438 110.898438 394.582031 109.207031 393.445313 108.113281 C 392.304688 107.023438 390.550781 106.484375 388.164063 106.484375 L 384.996094 106.484375 Z M 409.617188 134.210938 L 409.617188 131.679688 C 410.707031 131.953125 411.789063 132.171875 412.84375 132.328125 C 413.898438 132.484375 414.957031 132.554688 416 132.554688 C 418.351563 132.554688 420.089844 132.171875 421.253906 131.390625 C 422.417969 130.625 422.996094 129.4375 422.996094 127.851563 C 422.996094 125.789063 421.363281 123.878906 418.085938 122.117188 C 417.917969 122.019531 417.789063 121.960938 417.691406 121.914063 L 415.734375 120.820313 C 413.179688 119.441406 411.394531 118.121094 410.386719 116.859375 C 409.378906 115.613281 408.875 114.136719 408.875 112.457031 C 408.875 109.542969 409.917969 107.289063 412.003906 105.667969 C 414.082031 104.046875 417.019531 103.242188 420.824219 103.242188 C 421.640625 103.242188 422.550781 103.292969 423.546875 103.386719 C 424.542969 103.484375 425.695313 103.617188 427.003906 103.808594 L 427.003906 106.410156 C 424.988281 106.171875 423.617188 106.027344 422.875 105.957031 C 422.144531 105.882813 421.601563 105.847656 421.277344 105.847656 C 419.261719 105.847656 417.726563 106.195313 416.660156 106.902344 C 415.59375 107.597656 415.0625 108.605469 415.0625 109.925781 C 415.0625 111.570313 416.515625 113.214844 419.417969 114.882813 C 419.597656 115 419.742188 115.074219 419.839844 115.121094 L 422.921875 116.992188 C 425.695313 118.601563 427.507813 120.015625 428.382813 121.230469 C 429.246094 122.429688 429.675781 123.929688 429.675781 125.703125 C 429.675781 128.65625 428.585938 130.945313 426.414063 132.589844 C 424.230469 134.234375 421.148438 135.050781 417.164063 135.050781 C 416.070313 135.050781 414.894531 134.976563 413.648438 134.835938 C 412.414063 134.703125 411.070313 134.488281 409.617188 134.210938 Z M 436.601563 95.15625 C 436.601563 94.042969 436.996094 93.105469 437.777344 92.324219 C 438.566406 91.546875 439.515625 91.148438 440.644531 91.148438 C 441.722656 91.148438 442.648438 91.535156 443.414063 92.300781 C 444.195313 93.070313 444.578125 94.015625 444.578125 95.15625 C 444.578125 96.25 444.195313 97.171875 443.441406 97.953125 C 442.671875 98.734375 441.746094 99.128906 440.644531 99.128906 C 439.515625 99.128906 438.566406 98.734375 437.777344 97.953125 C 436.996094 97.171875 436.601563 96.25 436.601563 95.15625 Z M 437.164063 103.953125 L 444.015625 103.953125 L 444.015625 134.773438 L 437.164063 134.773438 Z M 472.078125 106.613281 C 471.214844 106.507813 470.460938 106.410156 469.824219 106.351563 C 469.199219 106.292969 468.636719 106.265625 468.144531 106.265625 C 464.773438 106.265625 462.242188 107.40625 460.5625 109.675781 C 458.894531 111.953125 458.054688 115.375 458.054688 119.933594 C 458.054688 124.035156 458.964844 127.097656 460.777344 129.101563 C 462.589844 131.101563 465.347656 132.097656 469.054688 132.097656 L 472.113281 132.097656 Z M 472.078125 103.941406 L 472.113281 84.441406 L 478.929688 84.441406 L 478.929688 134.773438 L 468.214844 134.773438 C 463.03125 134.773438 458.882813 133.324219 455.75 130.429688 C 452.617188 127.539063 451.058594 123.722656 451.058594 118.984375 C 451.058594 114.234375 452.511719 110.480469 455.402344 107.71875 C 458.292969 104.972656 462.253906 103.589844 467.269531 103.589844 C 467.832031 103.589844 468.480469 103.617188 469.234375 103.675781 C 469.980469 103.734375 470.925781 103.832031 472.078125 103.941406 Z M 490.867188 125.285156 L 488.132813 134.773438 L 485.109375 134.773438 L 492.667969 107.777344 C 493.085938 106.230469 493.769531 105.054688 494.707031 104.238281 C 495.644531 103.4375 496.796875 103.027344 498.152344 103.027344 C 499.578125 103.027344 500.828125 103.484375 501.871094 104.382813 C 502.925781 105.285156 503.707031 106.554688 504.199219 108.199219 L 512.105469 134.773438 L 505.109375 134.773438 L 502.300781 125.285156 Z M 491.574219 122.609375 L 501.59375 122.609375 L 497.933594 109.53125 C 497.707031 108.8125 497.492188 108.332031 497.285156 108.113281 C 497.09375 107.886719 496.820313 107.777344 496.460938 107.777344 C 496.230469 107.777344 496.027344 107.898438 495.847656 108.152344 C 495.667969 108.390625 495.476563 108.871094 495.269531 109.566406 Z M 536.507813 106.613281 C 535.644531 106.507813 534.886719 106.410156 534.253906 106.351563 C 533.628906 106.292969 533.066406 106.265625 532.574219 106.265625 C 529.203125 106.265625 526.671875 107.40625 524.992188 109.675781 C 523.324219 111.953125 522.484375 115.375 522.484375 119.933594 C 522.484375 124.035156 523.394531 127.097656 525.207031 129.101563 C 527.019531 131.101563 529.777344 132.097656 533.484375 132.097656 L 536.542969 132.097656 Z M 536.507813 103.941406 L 536.542969 84.441406 L 543.359375 84.441406 L 543.359375 134.773438 L 532.644531 134.773438 C 527.460938 134.773438 523.3125 133.324219 520.179688 130.429688 C 517.046875 127.539063 515.488281 123.722656 515.488281 118.984375 C 515.488281 114.234375 516.9375 110.480469 519.832031 107.71875 C 522.722656 104.972656 526.683594 103.589844 531.695313 103.589844 C 532.261719 103.589844 532.910156 103.617188 533.664063 103.675781 C 534.410156 103.734375 535.355469 103.832031 536.507813 103.941406 Z M 552.980469 109.507813 C 552.980469 107.214844 553.355469 105.714844 554.085938 105.007813 C 554.828125 104.300781 556.378906 103.953125 558.742188 103.953125 L 573.4375 103.953125 L 573.4375 106.628906 L 562.929688 106.628906 C 561.679688 106.628906 560.851563 106.808594 560.445313 107.15625 C 560.035156 107.503906 559.832031 108.152344 559.832031 109.085938 L 559.832031 116.851563 L 570.980469 116.851563 L 570.980469 119.871094 L 559.832031 119.871094 L 559.832031 129.675781 C 559.832031 130.609375 560.046875 131.246094 560.46875 131.59375 C 560.890625 131.929688 561.871094 132.097656 563.421875 132.097656 L 573.785156 132.097656 L 573.785156 134.773438 L 557.648438 134.773438 C 555.921875 134.773438 554.710938 134.414063 554.015625 133.683594 C 553.332031 132.964844 552.980469 131.464844 552.980469 129.21875 Z M 552.980469 109.507813 "/>
<g clip-path="url(#clip1)" clip-rule="nonzero">
<path style=" stroke:none;fill-rule:evenodd;fill:rgb(10.594177%,9.812927%,9.423828%);fill-opacity:1;" d="M 225.265625 204.839844 L 225.265625 157.84375 L 254.339844 157.84375 L 254.339844 161.359375 L 233.988281 161.359375 L 233.988281 178.539063 L 252.898438 178.539063 L 252.898438 182.089844 L 233.988281 182.089844 L 233.988281 201.324219 L 254.339844 201.324219 L 254.339844 204.839844 Z M 262.425781 204.273438 L 262.425781 201.742188 C 263.515625 202.019531 264.597656 202.234375 265.652344 202.390625 C 266.707031 202.546875 267.765625 202.617188 268.808594 202.617188 C 271.160156 202.617188 272.898438 202.234375 274.0625 201.453125 C 275.226563 200.6875 275.804688 199.5 275.804688 197.914063 C 275.804688 195.851563 274.171875 193.945313 270.894531 192.179688 C 270.726563 192.085938 270.59375 192.023438 270.5 191.976563 L 268.542969 190.886719 C 265.988281 189.503906 264.199219 188.183594 263.191406 186.925781 C 262.183594 185.675781 261.679688 184.203125 261.679688 182.523438 C 261.679688 179.605469 262.726563 177.351563 264.8125 175.730469 C 266.886719 174.113281 269.828125 173.308594 273.632813 173.308594 C 274.449219 173.308594 275.359375 173.355469 276.355469 173.453125 C 277.351563 173.546875 278.503906 173.679688 279.808594 173.871094 L 279.808594 176.476563 C 277.792969 176.234375 276.425781 176.089844 275.683594 176.019531 C 274.953125 175.945313 274.410156 175.910156 274.085938 175.910156 C 272.070313 175.910156 270.535156 176.257813 269.46875 176.96875 C 268.398438 177.664063 267.871094 178.671875 267.871094 179.992188 C 267.871094 181.632813 269.324219 183.277344 272.226563 184.945313 C 272.40625 185.066406 272.550781 185.136719 272.648438 185.1875 L 275.730469 187.058594 C 278.503906 188.664063 280.3125 190.082031 281.191406 191.292969 C 282.054688 192.492188 282.484375 193.992188 282.484375 195.769531 C 282.484375 198.71875 281.394531 201.011719 279.222656 202.65625 C 277.039063 204.296875 273.957031 205.113281 269.972656 205.113281 C 268.878906 205.113281 267.703125 205.042969 266.457031 204.898438 C 265.21875 204.765625 263.875 204.550781 262.425781 204.273438 Z M 293.8125 204.839844 L 293.8125 176.691406 L 287.238281 176.691406 L 287.238281 174.015625 L 307.203125 174.015625 L 307.203125 176.691406 L 300.628906 176.691406 L 300.628906 204.839844 Z M 316.476563 195.347656 L 313.742188 204.839844 L 310.71875 204.839844 L 318.277344 177.84375 C 318.695313 176.296875 319.378906 175.121094 320.316406 174.304688 C 321.25 173.5 322.402344 173.089844 323.757813 173.089844 C 325.1875 173.089844 326.433594 173.546875 327.480469 174.449219 C 328.535156 175.347656 329.3125 176.617188 329.804688 178.261719 L 337.714844 204.839844 L 330.71875 204.839844 L 327.910156 195.347656 Z M 317.183594 192.671875 L 327.203125 192.671875 L 323.542969 179.59375 C 323.316406 178.875 323.097656 178.394531 322.894531 178.179688 C 322.703125 177.949219 322.425781 177.84375 322.066406 177.84375 C 321.839844 177.84375 321.636719 177.964844 321.457031 178.214844 C 321.277344 178.453125 321.082031 178.933594 320.878906 179.632813 Z M 362.117188 176.679688 C 361.253906 176.570313 360.496094 176.476563 359.863281 176.414063 C 359.238281 176.355469 358.671875 176.332031 358.179688 176.332031 C 354.808594 176.332031 352.277344 177.472656 350.597656 179.738281 C 348.929688 182.019531 348.089844 185.4375 348.089844 189.996094 C 348.089844 194.101563 349.003906 197.160156 350.816406 199.164063 C 352.625 201.167969 355.386719 202.164063 359.09375 202.164063 L 362.152344 202.164063 Z M 362.117188 174.003906 L 362.152344 154.507813 L 368.96875 154.507813 L 368.96875 204.839844 L 358.253906 204.839844 C 353.070313 204.839844 348.917969 203.386719 345.789063 200.496094 C 342.65625 197.605469 341.097656 193.789063 341.097656 189.050781 C 341.097656 184.296875 342.546875 180.542969 345.441406 177.78125 C 348.332031 175.035156 352.289063 173.65625 357.304688 173.65625 C 357.871094 173.65625 358.519531 173.679688 359.273438 173.738281 C 360.015625 173.800781 360.964844 173.894531 362.117188 174.003906 Z M 385.308594 174.015625 L 385.308594 193.980469 C 385.308594 196.464844 385.886719 198.371094 387.050781 199.726563 C 388.214844 201.070313 389.878906 201.742188 392.066406 201.742188 C 394.332031 201.742188 395.953125 201.035156 396.921875 199.632813 C 397.894531 198.226563 398.386719 195.886719 398.386719 192.601563 L 398.386719 174.015625 L 401.410156 174.015625 L 401.410156 194.75 C 401.410156 198.191406 400.449219 200.902344 398.53125 202.882813 C 396.613281 204.863281 393.972656 205.859375 390.625 205.859375 C 386.640625 205.859375 383.617188 204.851563 381.554688 202.824219 C 379.492188 200.796875 378.457031 197.820313 378.457031 193.910156 L 378.457031 174.015625 Z M 412.714844 195.347656 L 409.976563 204.839844 L 406.953125 204.839844 L 414.511719 177.84375 C 414.933594 176.296875 415.617188 175.121094 416.550781 174.304688 C 417.488281 173.5 418.640625 173.089844 419.996094 173.089844 C 421.421875 173.089844 422.671875 173.546875 423.714844 174.449219 C 424.769531 175.347656 425.550781 176.617188 426.042969 178.261719 L 433.949219 204.839844 L 426.953125 204.839844 L 424.148438 195.347656 Z M 413.421875 192.671875 L 423.441406 192.671875 L 419.78125 179.59375 C 419.550781 178.875 419.335938 178.394531 419.132813 178.179688 C 418.941406 177.949219 418.664063 177.84375 418.304688 177.84375 C 418.078125 177.84375 417.871094 177.964844 417.691406 178.214844 C 417.511719 178.453125 417.320313 178.933594 417.117188 179.632813 Z M 439.925781 154.507813 L 446.777344 154.507813 L 446.777344 199.738281 C 446.777344 200.675781 446.992188 201.3125 447.410156 201.660156 C 447.832031 201.996094 448.816406 202.164063 450.363281 202.164063 L 452.078125 202.164063 L 452.078125 204.839844 L 444.59375 204.839844 C 442.863281 204.839844 441.652344 204.480469 440.957031 203.746094 C 440.273438 203.027344 439.925781 201.527344 439.925781 199.285156 Z M 496.878906 176.679688 C 496.015625 176.570313 495.261719 176.476563 494.625 176.414063 C 494 176.355469 493.4375 176.332031 492.945313 176.332031 C 489.574219 176.332031 487.042969 177.472656 485.363281 179.738281 C 483.695313 182.019531 482.855469 185.4375 482.855469 189.996094 C 482.855469 194.101563 483.765625 197.160156 485.578125 199.164063 C 487.390625 201.167969 490.148438 202.164063 493.855469 202.164063 L 496.914063 202.164063 Z M 496.878906 174.003906 L 496.914063 154.507813 L 503.730469 154.507813 L 503.730469 204.839844 L 493.015625 204.839844 C 487.832031 204.839844 483.683594 203.386719 480.550781 200.496094 C 477.417969 197.605469 475.859375 193.789063 475.859375 189.050781 C 475.859375 184.296875 477.3125 180.542969 480.203125 177.78125 C 483.09375 175.035156 487.054688 173.65625 492.070313 173.65625 C 492.632813 173.65625 493.28125 173.679688 494.035156 173.738281 C 494.78125 173.800781 495.726563 173.894531 496.878906 174.003906 Z M 513.351563 179.570313 C 513.351563 177.277344 513.726563 175.777344 514.457031 175.070313 C 515.199219 174.363281 516.75 174.015625 519.113281 174.015625 L 533.808594 174.015625 L 533.808594 176.691406 L 523.300781 176.691406 C 522.050781 176.691406 521.222656 176.871094 520.816406 177.21875 C 520.40625 177.566406 520.203125 178.214844 520.203125 179.152344 L 520.203125 186.914063 L 531.351563 186.914063 L 531.351563 189.9375 L 520.203125 189.9375 L 520.203125 199.738281 C 520.203125 200.675781 520.421875 201.3125 520.839844 201.660156 C 521.261719 201.996094 522.242188 202.164063 523.792969 202.164063 L 534.15625 202.164063 L 534.15625 204.839844 L 518.019531 204.839844 C 516.292969 204.839844 515.082031 204.480469 514.386719 203.746094 C 513.703125 203.027344 513.351563 201.527344 513.351563 199.285156 Z M 592.914063 201.324219 L 592.914063 204.839844 L 563.839844 204.839844 L 563.839844 157.84375 L 572.5625 157.84375 L 572.5625 201.324219 Z M 609.648438 203.542969 C 612.109375 203.542969 614.101563 202.257813 615.625 199.691406 C 617.148438 197.125 617.90625 193.726563 617.90625 189.503906 C 617.90625 185.269531 617.148438 181.851563 615.625 179.257813 C 614.101563 176.667969 612.109375 175.371094 609.648438 175.371094 C 607.191406 175.371094 605.199219 176.667969 603.664063 179.269531 C 602.128906 181.875 601.359375 185.292969 601.359375 189.503906 C 601.359375 193.703125 602.128906 197.101563 603.664063 199.679688 C 605.199219 202.257813 607.191406 203.542969 609.648438 203.542969 Z M 610.5625 205.859375 C 605.929688 205.859375 602.042969 204.261719 598.910156 201.070313 C 595.78125 197.890625 594.21875 193.882813 594.21875 189.050781 C 594.21875 184.347656 595.550781 180.507813 598.226563 177.542969 C 600.902344 174.578125 604.394531 173.089844 608.703125 173.089844 C 613.394531 173.089844 617.292969 174.6875 620.421875 177.878906 C 623.554688 181.058594 625.113281 185.054688 625.113281 189.863281 C 625.113281 194.59375 623.773438 198.445313 621.09375 201.40625 C 618.410156 204.371094 614.90625 205.859375 610.5625 205.859375 Z M 635.121094 204.839844 L 632.171875 204.839844 L 632.171875 179.28125 C 632.171875 177.097656 632.53125 175.527344 633.238281 174.554688 C 633.957031 173.582031 635.085938 173.089844 636.632813 173.089844 C 637.882813 173.089844 639.042969 173.523438 640.148438 174.375 C 641.253906 175.226563 642.296875 176.523438 643.28125 178.261719 L 651.332031 192.601563 C 651.355469 192.648438 651.402344 192.695313 651.488281 192.746094 C 651.570313 192.792969 651.65625 192.816406 651.75 192.816406 C 651.941406 192.816406 652.074219 192.757813 652.160156 192.636719 C 652.242188 192.527344 652.277344 192.289063 652.277344 191.941406 L 652.277344 174.015625 L 655.230469 174.015625 L 655.230469 202.234375 C 655.230469 203.664063 655.0625 204.621094 654.726563 205.113281 C 654.378906 205.605469 653.800781 205.859375 652.988281 205.859375 C 652.398438 205.859375 651.894531 205.714844 651.488281 205.414063 C 651.078125 205.125 650.683594 204.636719 650.3125 203.960938 L 636.140625 179.632813 C 636.046875 179.464844 635.960938 179.355469 635.890625 179.292969 C 635.828125 179.234375 635.746094 179.210938 635.648438 179.210938 C 635.433594 179.210938 635.300781 179.257813 635.230469 179.355469 C 635.15625 179.449219 635.121094 179.679688 635.121094 180.050781 Z M 683.355469 176.679688 C 682.492188 176.570313 681.734375 176.476563 681.097656 176.414063 C 680.472656 176.355469 679.910156 176.332031 679.417969 176.332031 C 676.046875 176.332031 673.515625 177.472656 671.835938 179.738281 C 670.167969 182.019531 669.328125 185.4375 669.328125 189.996094 C 669.328125 194.101563 670.242188 197.160156 672.050781 199.164063 C 673.863281 201.167969 676.625 202.164063 680.332031 202.164063 L 683.390625 202.164063 Z M 683.355469 174.003906 L 683.390625 154.507813 L 690.203125 154.507813 L 690.203125 204.839844 L 679.492188 204.839844 C 674.308594 204.839844 670.15625 203.386719 667.023438 200.496094 C 663.894531 197.605469 662.332031 193.789063 662.332031 189.050781 C 662.332031 184.296875 663.785156 180.542969 666.675781 177.78125 C 669.570313 175.035156 673.527344 173.65625 678.542969 173.65625 C 679.105469 173.65625 679.753906 173.679688 680.511719 173.738281 C 681.253906 173.800781 682.203125 173.894531 683.355469 174.003906 Z M 706.679688 204.839844 L 699.828125 204.839844 L 699.828125 174.015625 L 712.199219 174.015625 C 716.035156 174.015625 718.953125 174.746094 720.945313 176.199219 C 722.9375 177.652344 723.929688 179.75 723.929688 182.523438 C 723.929688 184.539063 723.332031 186.195313 722.144531 187.476563 C 720.945313 188.761719 719.300781 189.542969 717.1875 189.792969 L 725.167969 204.839844 L 716.972656 204.839844 L 709.628906 189.445313 C 712.113281 189.398438 713.9375 188.882813 715.089844 187.898438 C 716.253906 186.914063 716.828125 185.367188 716.828125 183.253906 C 716.828125 180.960938 716.265625 179.269531 715.125 178.179688 C 713.984375 177.085938 712.234375 176.546875 709.84375 176.546875 L 706.679688 176.546875 Z M 731.429688 165.222656 C 731.429688 164.105469 731.828125 163.167969 732.605469 162.390625 C 733.398438 161.609375 734.34375 161.214844 735.472656 161.214844 C 736.554688 161.214844 737.476563 161.597656 738.246094 162.367188 C 739.023438 163.132813 739.410156 164.082031 739.410156 165.222656 C 739.410156 166.3125 739.023438 167.238281 738.269531 168.015625 C 737.5 168.796875 736.578125 169.191406 735.472656 169.191406 C 734.34375 169.191406 733.398438 168.796875 732.605469 168.015625 C 731.828125 167.238281 731.429688 166.3125 731.429688 165.222656 Z M 731.996094 174.015625 L 738.84375 174.015625 L 738.84375 204.839844 L 731.996094 204.839844 Z M 751.429688 204.839844 L 748.480469 204.839844 L 748.480469 179.28125 C 748.480469 177.097656 748.839844 175.527344 749.546875 174.554688 C 750.265625 173.582031 751.394531 173.089844 752.941406 173.089844 C 754.191406 173.089844 755.355469 173.523438 756.457031 174.375 C 757.5625 175.226563 758.605469 176.523438 759.589844 178.261719 L 767.640625 192.601563 C 767.664063 192.648438 767.710938 192.695313 767.796875 192.746094 C 767.878906 192.792969 767.964844 192.816406 768.058594 192.816406 C 768.253906 192.816406 768.382813 192.757813 768.46875 192.636719 C 768.550781 192.527344 768.589844 192.289063 768.589844 191.941406 L 768.589844 174.015625 L 771.539063 174.015625 L 771.539063 202.234375 C 771.539063 203.664063 771.371094 204.621094 771.035156 205.113281 C 770.6875 205.605469 770.113281 205.859375 769.296875 205.859375 C 768.707031 205.859375 768.203125 205.714844 767.796875 205.414063 C 767.386719 205.125 766.992188 204.636719 766.621094 203.960938 L 752.449219 179.632813 C 752.355469 179.464844 752.269531 179.355469 752.199219 179.292969 C 752.140625 179.234375 752.054688 179.210938 751.957031 179.210938 C 751.742188 179.210938 751.609375 179.257813 751.539063 179.355469 C 751.46875 179.449219 751.429688 179.679688 751.429688 180.050781 Z M 783.550781 195.347656 L 780.8125 204.839844 L 777.789063 204.839844 L 785.347656 177.84375 C 785.769531 176.296875 786.453125 175.121094 787.390625 174.304688 C 788.324219 173.5 789.476563 173.089844 790.832031 173.089844 C 792.261719 173.089844 793.507813 173.546875 794.550781 174.449219 C 795.609375 175.347656 796.386719 176.617188 796.878906 178.261719 L 804.785156 204.839844 L 797.792969 204.839844 L 794.984375 195.347656 Z M 784.257813 192.671875 L 794.277344 192.671875 L 790.617188 179.59375 C 790.386719 178.875 790.171875 178.394531 789.96875 178.179688 C 789.777344 177.949219 789.5 177.84375 789.140625 177.84375 C 788.914063 177.84375 788.707031 177.964844 788.527344 178.214844 C 788.347656 178.453125 788.15625 178.933594 787.953125 179.632813 Z M 784.257813 192.671875 "/>
</g>
<g clip-path="url(#clip2)" clip-rule="nonzero">
<path style=" stroke:none;fill-rule:evenodd;fill:rgb(10.594177%,9.812927%,9.423828%);fill-opacity:1;" d="M 0.0390625 161.160156 L 12.410156 175.773438 L 82.25 175.773438 L 82.25 158.304688 L 57.246094 158.304688 L 57.246094 7.6875 L 40.246094 26.949219 L 40.246094 158.074219 L 37.847656 158.074219 L 37.847656 29.664063 L 21.339844 48.363281 L 21.339844 158.074219 L 18.941406 158.074219 L 18.941406 51.082031 L 0.0390625 72.496094 Z M 14.4375 178.171875 L 31.957031 198.867188 L 82.25 198.867188 L 82.25 178.171875 Z M 33.984375 201.265625 L 48.246094 218.113281 L 82.25 218.113281 L 82.25 201.265625 Z M 33.984375 201.265625 "/>
</g>
<g clip-path="url(#clip3)" clip-rule="nonzero">
<path style=" stroke:none;fill-rule:evenodd;fill:rgb(0%,56.443787%,20.776367%);fill-opacity:1;" d="M 97.574219 -0.0859375 C 118.699219 -0.0859375 135.824219 19.101563 135.824219 42.769531 C 135.824219 61.53125 125.0625 77.472656 110.078125 83.28125 L 110.078125 218.109375 L 85.503906 218.109375 L 85.503906 83.445313 C 70.292969 77.78125 59.328125 61.710938 59.328125 42.769531 C 59.328125 19.101563 76.449219 -0.0859375 97.574219 -0.0859375 Z M 97.574219 -0.0859375 "/>
</g>
<g clip-path="url(#clip4)" clip-rule="nonzero">
<path style=" stroke:none;fill-rule:evenodd;fill:rgb(10.594177%,9.812927%,9.423828%);fill-opacity:1;" d="M 195.238281 161.160156 L 182.871094 175.773438 L 113.027344 175.773438 L 113.027344 158.304688 L 138.03125 158.304688 L 138.03125 7.6875 L 155.035156 26.949219 L 155.035156 158.074219 L 157.433594 158.074219 L 157.433594 29.664063 L 173.941406 48.363281 L 173.941406 158.074219 L 176.335938 158.074219 L 176.335938 51.082031 L 195.238281 72.496094 Z M 180.84375 178.171875 L 163.324219 198.867188 L 113.027344 198.867188 L 113.027344 178.171875 Z M 161.292969 201.265625 L 147.035156 218.113281 L 113.027344 218.113281 L 113.027344 201.265625 Z M 161.292969 201.265625 "/>
</g>
</g>
</svg>
